<?xml version="1.0" encoding="iso-8859-1"?>
<!-- Uploaded to: SVG Repo, www.svgrepo.com, Generator: SVG Repo Mixer Tools -->
<svg fill="#DDDDDD" height="16px" width="16px" version="1.1" id="Layer_1" xmlns="http://www.w3.org/2000/svg" xmlns:xlink="http://www.w3.org/1999/xlink" 
	 viewBox="0 0 512.001 512.001" xml:space="preserve">
<g>
	<g>
		<path d="M466.533,187.75H345.477c-5.499,0-9.956,4.456-9.956,9.956v30.405c-0.001,28.896,23.507,52.405,52.403,52.405h36.16
			c28.896,0,52.405-23.509,52.405-52.405v-30.405C476.489,192.207,472.031,187.75,466.533,187.75z M456.575,228.112
			c0,17.916-14.575,32.492-32.492,32.492h-36.159c-17.916,0-32.492-14.575-32.492-32.492v-20.449h101.143V228.112z"/>
	</g>
</g>
<g>
	<g>
		<path d="M166.524,187.75H45.467c-5.499,0-9.956,4.456-9.956,9.956v30.405c0,28.896,23.508,52.405,52.405,52.405h36.161
			c28.896,0,52.403-23.509,52.403-52.405v-30.405C176.48,192.208,172.022,187.75,166.524,187.75z M124.077,260.605H87.916
			c-17.916,0-32.492-14.575-32.492-32.492v-20.45h101.143v20.45h0.001C156.568,246.029,141.993,260.605,124.077,260.605z"/>
	</g>
</g>
<g>
	<g>
		<path d="M470.031,56.853c-12.816,0-24.309,5.775-32.013,14.857c-7.705-9.084-19.197-14.857-32.013-14.857
			c-12.816,0-24.309,5.775-32.013,14.857c-7.705-9.084-19.197-14.857-32.013-14.857c-23.142,0-41.969,18.828-41.969,41.969v17.189
			c-11.544-10.985-27.108-17.736-44.008-17.736c-16.901,0-32.464,6.75-44.008,17.736V98.822c0-23.142-18.828-41.969-41.971-41.969
			c-12.816,0-24.309,5.775-32.013,14.857c-7.706-9.083-19.198-14.857-32.014-14.857c-12.816,0-24.309,5.775-32.013,14.857
			c-7.705-9.084-19.197-14.857-32.013-14.857C18.828,56.853,0,75.681,0,98.822v63.373v65.917c0,48.477,39.439,87.916,87.916,87.916
			h36.161c15.877,0,31.141-4.204,44.499-12.074c0.526,4.95,1.462,9.838,2.797,14.624c-47.831,4.487-85.395,44.849-85.395,93.835
			c0,22.01,16.798,40.712,38.244,42.575c1.237,0.107,2.49,0.162,3.725,0.162c12.816,0,24.309-5.775,32.014-14.857
			c7.705,9.083,19.197,14.857,32.013,14.857c12.816,0,24.309-5.775,32.013-14.857c7.705,9.084,19.197,14.857,32.013,14.857
			s24.309-5.775,32.013-14.857c7.705,9.084,19.197,14.857,32.013,14.857c12.817,0,24.309-5.775,32.014-14.857
			c7.705,9.083,19.196,14.856,32.012,14.857c0.001,0,0.004,0,0.005,0c0.504,0,1.006-0.009,1.515-0.028
			c22.305-0.793,40.451-19.951,40.451-42.71c0-48.985-37.563-89.348-85.395-93.835c1.335-4.784,2.27-9.674,2.797-14.624
			c13.359,7.869,28.622,12.074,44.499,12.074h36.161c48.477,0,87.916-39.439,87.916-87.916v-65.917V98.822
			C512,75.681,493.172,56.853,470.031,56.853z M319.922,98.822c0-12.163,9.895-22.057,22.057-22.057s22.057,9.894,22.057,22.057
			c0,5.5,4.458,9.956,9.956,9.956s9.956-4.456,9.956-9.956c0-12.163,9.895-22.057,22.057-22.057
			c12.161,0,22.057,9.894,22.057,22.057c0,5.5,4.458,9.956,9.956,9.956s9.956-4.456,9.956-9.956
			c0-12.163,9.895-22.057,22.057-22.057c12.161,0,22.057,9.894,22.057,22.057v53.416H319.922V98.822z M199.968,225.509
			l10.744-55.717c0.094-0.49,0.185-0.989,0.272-1.501c0.611-3.575,0.937-7.024,1.156-9.716
			c1.839-22.647,21.105-40.387,43.862-40.387c22.757,0,42.024,17.739,43.862,40.385c0.218,2.69,0.543,6.134,1.155,9.717
			c0.088,0.511,0.178,1.012,0.272,1.5l21.487,111.435c0.238,1.231,0.439,2.464,0.609,3.698c0.004,0.034,0.011,0.068,0.015,0.102
			c4.936,36.171-20.973,72.396-57.484,77.789c-44.535,6.579-83.316-33.826-77.317-77.789c0.005-0.035,0.011-0.068,0.015-0.101
			c0.17-1.235,0.372-2.468,0.609-3.698L199.968,225.509z M19.913,98.822c0-12.163,9.895-22.057,22.057-22.057
			s22.057,9.894,22.057,22.057c0,5.5,4.458,9.956,9.956,9.956s9.956-4.456,9.956-9.956c0-12.163,9.895-22.057,22.057-22.057
			c12.161,0,22.057,9.894,22.057,22.057c0,5.5,4.458,9.956,9.956,9.956s9.956-4.456,9.956-9.956
			c0-12.163,9.895-22.057,22.057-22.057c12.163,0,22.058,9.894,22.058,22.057v53.416H19.913V98.822z M169.671,277.458
			c-0.084,0.433-0.165,0.871-0.243,1.312c-12.493,11.208-28.476,17.345-45.353,17.345H87.914c-37.495,0-68.002-30.505-68.002-68.002
			v-55.961h170.063L169.671,277.458z M347.884,339.824c33.579,7.453,58.226,38.202,58.226,72.588
			c0,12.161-9.53,22.394-21.244,22.811c-0.271,0.009-0.538,0.015-0.812,0.015c-12.163-0.001-22.058-9.895-22.058-22.057
			c0-5.5-4.458-9.956-9.956-9.956s-9.956,4.456-9.956,9.956c0,12.163-9.895,22.057-22.057,22.057s-22.057-9.894-22.057-22.057
			c0-5.5-4.458-9.956-9.956-9.956s-9.956,4.456-9.956,9.956c0,12.163-9.895,22.057-22.057,22.057s-22.057-9.894-22.057-22.057
			c0-5.5-4.458-9.956-9.956-9.956s-9.956,4.456-9.956,9.956c0,12.163-9.895,22.057-22.057,22.057s-22.057-9.894-22.057-22.057
			c0-5.5-4.458-9.956-9.956-9.956s-9.956,4.456-9.956,9.956c0,12.163-9.895,22.057-22.058,22.057c-0.662,0-1.335-0.029-2.001-0.086
			c-11.247-0.977-20.055-10.965-20.055-22.738c0-40.701,32.874-73.868,73.464-74.346c15.354,27.6,45.807,45.757,77.495,45.449
			c18.158-0.177,36.067-6.478,50.704-17.146c7.673-5.591,14.455-12.391,19.942-20.144c2.609-3.688,3.477-6.972,7.539-8.11
			C338.432,337.165,344.504,339.073,347.884,339.824z M424.084,296.116h-36.161c-16.877,0-32.86-6.137-45.353-17.345
			c-0.078-0.442-0.159-0.88-0.243-1.314l-12.806-66.419l-7.498-38.884h170.063v55.96h0.001
			C492.087,265.61,461.581,296.116,424.084,296.116z"/>
	</g>
</g>
</svg>